<mxfile host="app.diagrams.net" modified="2023-04-22T11:07:18.222Z" agent="Mozilla/5.0 (Windows NT 10.0; Win64; x64) AppleWebKit/537.36 (KHTML, like Gecko) Chrome/112.0.0.0 Safari/537.36 Edg/112.0.1722.48" version="21.2.1" etag="eduVEd5G6rokjogPm_mw" type="github">
  <diagram name="第 1 页" id="U38pYlGBrGNYsR3tnVjK">
    <mxGraphModel>
      <root>
        <mxCell id="0" />
        <mxCell id="1" parent="0" />
      </root>
    </mxGraphModel>
  </diagram>
</mxfile>
